<svg xmlns="http://www.w3.org/2000/svg" viewBox="0 0 17.073 14.953">
  <defs>
    <style>
      .cls-1 {
        fill: #636466;
      }
    </style>
  </defs>
  <g id="Group_1484" data-name="Group 1484" transform="translate(0 -0.011)">
    <path id="Path_2117" data-name="Path 2117" class="cls-1" d="M17.073,5.216a2.221,2.221,0,0,0-2.131-2.562V2.312A2.135,2.135,0,0,0,12.689.026C9.549.01,6.4,0,3.262.026A3.176,3.176,0,0,0,0,3.377v8.256A3.21,3.21,0,0,0,3.335,14.96c3.807.008,7.613,0,11.42,0a2.138,2.138,0,0,0,2.31-2.3Q17.077,8.937,17.073,5.216Zm-1.594,7.337c0,.7-.106.805-.8.805H3.384a1.589,1.589,0,0,1-1.773-1.749q-.012-4.124,0-8.248A1.585,1.585,0,0,1,3.343,1.612c3.1-.008,6.206-.008,9.305,0,.545,0,.7.163.708.7v.732c0,.041-.016.081-.033.187H4.083c-.61,0-.846.146-.854.5-.008.382.252.553.862.553H14.657c.716,0,.83.106.83.822Q15.475,8.831,15.479,12.552Z" transform="translate(0 0)"/>
    <path id="Path_2118" data-name="Path 2118" class="cls-1" d="M145.5,92a1.065,1.065,0,0,0-1,1.074,1.053,1.053,0,0,0,2.107-.016A1.082,1.082,0,0,0,145.5,92Z" transform="translate(-132.746 -84.503)"/>
  </g>
</svg>
