<svg id="Group_1896" data-name="Group 1896" xmlns="http://www.w3.org/2000/svg" viewBox="0 0 21.106 14.287">
  <defs>
    <style>
      .cls-1 {
        fill: #636466;
      }
    </style>
  </defs>
  <path id="Path_2419" data-name="Path 2419" class="cls-1" d="M14.526,4.627V0H6.543V2.807H0v11.48H21.106V4.627ZM1.243,13.044v-9h5.3v9Zm12.041,0h-5.5V1.238h5.5Zm6.58,0H14.526V5.87h5.337v7.174Z"/>
  <path id="Path_2420" data-name="Path 2420" class="cls-1" d="M61.084,172.267a.153.153,0,0,1,.107-.045h.219v0a1.4,1.4,0,0,0,1.28-1.4v-.281a1.344,1.344,0,0,0-1.342-1.342h-1.2v1.243h1.2a.1.1,0,0,1,.1.1v.281a.156.156,0,0,1-.045.111.153.153,0,0,1-.107.045H61.1v0a1.394,1.394,0,0,0-1.3,1.4v.281A1.344,1.344,0,0,0,61.142,174h1.408v-1.243H61.137a.1.1,0,0,1-.1-.1v-.281A.156.156,0,0,1,61.084,172.267Z" transform="translate(-57.332 -162.216)"/>
  <path id="Path_2421" data-name="Path 2421" class="cls-1" d="M391.8,173.854h-1.3V175.1h1.3a1.392,1.392,0,0,0,1.391-1.391v-.182a1.44,1.44,0,0,1,0-1.651v-.182A1.392,1.392,0,0,0,391.8,170.3h-1.3v1.243h1.3a.148.148,0,0,1,.149.149v.182a.2.2,0,0,1-.206.206h-1.2v1.242h1.2a.2.2,0,0,1,.206.206v.182A.145.145,0,0,1,391.8,173.854Z" transform="translate(-374.38 -163.27)"/>
  <rect id="Rectangle_1390" data-name="Rectangle 1390" class="cls-1" width="1.243" height="4.842" transform="translate(9.911 6.951)"/>
</svg>
