<svg xmlns="http://www.w3.org/2000/svg" viewBox="0 0 15.611 15.611">
  <defs>
    <style>
      .cls-1 {
        fill: #636466;
      }
    </style>
  </defs>
  <path id="question-circle" class="cls-1" d="M15.805,8a7.805,7.805,0,1,0,7.805,7.805A7.807,7.807,0,0,0,15.805,8Zm0,14.1A6.295,6.295,0,1,1,22.1,15.805,6.291,6.291,0,0,1,15.805,22.1Zm3.375-8.032c0,2.11-2.279,2.143-2.279,2.923v.2a.378.378,0,0,1-.378.378H15.087a.378.378,0,0,1-.378-.378v-.273c0-1.125.853-1.575,1.5-1.936.553-.31.891-.521.891-.931,0-.543-.692-.9-1.252-.9-.73,0-1.067.345-1.54.943a.378.378,0,0,1-.525.067l-.876-.664a.379.379,0,0,1-.083-.515,3.538,3.538,0,0,1,3.165-1.705A3.126,3.126,0,0,1,19.181,14.068Zm-2.053,5.262a1.322,1.322,0,1,1-1.322-1.322A1.323,1.323,0,0,1,17.127,19.331Z" transform="translate(-8 -8)"/>
</svg>
