<svg xmlns="http://www.w3.org/2000/svg" viewBox="0 0 15.847 15.847">
  <defs>
    <style>
      .cls-1 {
        fill: #636466;
      }
    </style>
  </defs>
  <g id="Group_1354" data-name="Group 1354" transform="translate(0.123)">
    <path id="Path_1542" data-name="Path 1542" class="cls-1" d="M1.59,0h8.8a.306.306,0,0,0,.037.01,1.988,1.988,0,0,1,.711.2,2.552,2.552,0,0,1,1.129,1.121,3.579,3.579,0,0,1,.413,1.709c0,.437,0,.874,0,1.311q0,2.117,0,4.233,0,1.161,0,2.323v.066h.061c.391,0,.781,0,1.172,0a1.451,1.451,0,0,1,.308.037,1.72,1.72,0,0,1,1,.694,2.657,2.657,0,0,1,.485,1.332,3.293,3.293,0,0,1-.121,1.337,2.205,2.205,0,0,1-.745,1.129,1.582,1.582,0,0,1-.99.345q-4.482,0-8.964,0c-.105,0-.211-.01-.315-.02a2.118,2.118,0,0,1-1-.366,2.738,2.738,0,0,1-.986-1.252,3.719,3.719,0,0,1-.27-1.451V4.874h-.06c-.17,0-.338,0-.508,0A1.547,1.547,0,0,1,.738,4.514,2.254,2.254,0,0,1-.01,3.306,3.389,3.389,0,0,1-.083,1.917,2.639,2.639,0,0,1,.332.8,1.777,1.777,0,0,1,1.313.056C1.4.031,1.5.019,1.59,0ZM3.538,4.876v7.9a2.972,2.972,0,0,0,.063.638,1.747,1.747,0,0,0,.439.866,1.014,1.014,0,0,0,.745.342h7.15l-.031-.058a3.39,3.39,0,0,1-.437-1.59c-.012-.364-.005-.728-.007-1.09v-.65q0-1,0-2,0-2.515,0-5.032c0-.262.007-.522,0-.784s0-.517-.027-.772a1.857,1.857,0,0,0-.328-.915,1.172,1.172,0,0,0-.726-.507.406.406,0,0,0-.434.15,1.2,1.2,0,0,0-.2.362,2.166,2.166,0,0,0-.1.966,1.6,1.6,0,0,0,.2.656.512.512,0,0,0,.422.3.6.6,0,0,1,.508.861.594.594,0,0,1-.577.354H3.616C3.59,4.876,3.568,4.876,3.538,4.876ZM8.753,1.218H1.731a.371.371,0,0,0-.267.109.986.986,0,0,0-.243.393,2.162,2.162,0,0,0-.078,1.153,1.381,1.381,0,0,0,.228.568.433.433,0,0,0,.349.218q.536,0,1.071,0c.065,0,.129-.014.194-.015.041,0,.083.015.124.015h5.65c-.017-.039-.031-.066-.043-.1-.063-.156-.131-.311-.187-.469a1.923,1.923,0,0,1-.105-.815,2.377,2.377,0,0,1,.194-.73C8.656,1.439,8.7,1.333,8.753,1.218Zm3.925,10.969v.337a4.333,4.333,0,0,0,.043.786,1.933,1.933,0,0,0,.33.82,1.153,1.153,0,0,0,.728.486.4.4,0,0,0,.412-.146,1.152,1.152,0,0,0,.2-.357,2.2,2.2,0,0,0,.078-1.129,1.4,1.4,0,0,0-.231-.583.467.467,0,0,0-.418-.218c-.347.009-.694,0-1.041,0A.892.892,0,0,1,12.679,12.187Z"/>
    <path id="Path_1543" data-name="Path 1543" class="cls-1" d="M390.671,501.5h1.257a.6.6,0,0,1,.571.332.607.607,0,0,1-.549.888c-.8,0-1.592,0-2.388,0a1,1,0,0,1-.333-.027.615.615,0,0,1,.1-1.19.432.432,0,0,1,.065,0C389.821,501.5,390.246,501.5,390.671,501.5Z" transform="translate(-382.319 -492.971)"/>
    <path id="Path_1544" data-name="Path 1544" class="cls-1" d="M390.513,645h1.281a.609.609,0,0,1,.068,1.214.552.552,0,0,1-.075,0c-.8,0-1.6,0-2.393,0a1.019,1.019,0,0,1-.313-.022.616.616,0,0,1,.071-1.194.358.358,0,0,1,.06,0C389.649,645,390.081,645,390.513,645Z" transform="translate(-382.159 -634.031)"/>
    <path id="Path_1545" data-name="Path 1545" class="cls-1" d="M390.715,358.3h1.267a.608.608,0,0,1,.056,1.214c-.308.007-.616,0-.925,0h-1.488a1.472,1.472,0,0,1-.313-.015.607.607,0,0,1-.459-.616.619.619,0,0,1,.515-.583.294.294,0,0,1,.054,0Q390.07,358.3,390.715,358.3Z" transform="translate(-382.359 -352.207)"/>
    <path id="Path_1546" data-name="Path 1546" class="cls-1" d="M287.405,646.218a.609.609,0,1,1,.611-.609A.606.606,0,0,1,287.405,646.218Z" transform="translate(-282.043 -634.031)"/>
    <path id="Path_1547" data-name="Path 1547" class="cls-1" d="M287.294,359.514a.609.609,0,0,1-.008-1.218.609.609,0,1,1,.008,1.218Z" transform="translate(-281.928 -352.203)"/>
    <path id="Path_1548" data-name="Path 1548" class="cls-1" d="M287.409,501.7a.61.61,0,1,1-.609.6A.612.612,0,0,1,287.409,501.7Z" transform="translate(-282.043 -493.168)"/>
  </g>
</svg>
