<svg id="Group_1876" data-name="Group 1876" xmlns="http://www.w3.org/2000/svg" viewBox="0 0 15.823 17.033">
  <defs>
    <style>
      .cls-1 {
        fill: #ffd500;
      }
    </style>
  </defs>
  <path id="Path_386" data-name="Path 386" class="cls-1" d="M92.106,39.9l.461.2c-.32.2-.466.387-.428.57s.212.353.511.482a2.8,2.8,0,0,0,1.006.2,6.474,6.474,0,0,0,1.8-.328,2.467,2.467,0,0,1,.461-.1.556.556,0,0,1,.27.037c.054.025.216.1-.191.274a1.7,1.7,0,0,1-.819.141,1.023,1.023,0,0,0-.57.1l-.245.158c-.108.067-.129.154-.058.233a.654.654,0,0,0,.412.15,4.389,4.389,0,0,0,1.783-.208l.624.27a1.158,1.158,0,0,0,.8,0c.22-.1.22-.254,0-.349l-.644-.283c.283-.179.432-.362.441-.54.012-.212-.158-.395-.507-.545a2.647,2.647,0,0,0-.84-.2,3.161,3.161,0,0,0-.873.042c-.266.05-.669.15-1.2.3a2.285,2.285,0,0,1-.466.1.549.549,0,0,1-.2-.033c-.183-.079-.029-.183.133-.254a1.517,1.517,0,0,1,.64-.125.872.872,0,0,0,.536-.133l.141-.121a.138.138,0,0,0-.012-.241.855.855,0,0,0-.47-.125,4.166,4.166,0,0,0-1.239.17l-.47-.2a1.158,1.158,0,0,0-.8,0c-.22.1-.22.262,0,.358Zm0,0" transform="translate(-88.115 -37.834)"/>
  <path id="Path_387" data-name="Path 387" class="cls-1" d="M13.744,4.573a2.061,2.061,0,0,0,.058-.478V3.588c0-1.019-.761-1.95-2.141-2.619A11.142,11.142,0,0,0,6.9,0a11.178,11.178,0,0,0-4.76.965C.761,1.638,0,2.569,0,3.588V4.1c0,1,.74,1.921,2.083,2.59a2.287,2.287,0,0,0-.062.474v.091A3.084,3.084,0,0,0,0,9.815v.511a2.5,2.5,0,0,0,.994,1.887,2.046,2.046,0,0,0-.133.723v.511c0,1.019.761,1.95,2.141,2.619a11.129,11.129,0,0,0,4.76.965,11.192,11.192,0,0,0,4.76-.965c1.38-.673,2.141-1.6,2.141-2.619v-.511a2.5,2.5,0,0,0-.994-1.887,2.063,2.063,0,0,0,.133-.723v-.091a3.084,3.084,0,0,0,2.02-2.561V7.163c0-1.006-.74-1.921-2.079-2.59ZM.965,3.155a3.018,3.018,0,0,1,1.559-1.4A10.267,10.267,0,0,1,6.9.877a10.28,10.28,0,0,1,4.378.877,3.013,3.013,0,0,1,1.559,1.4C12.131,4.378,9.678,5.276,6.9,5.276S1.671,4.382.965,3.155Zm0,6.228A2.6,2.6,0,0,1,2.1,8.219a3.588,3.588,0,0,0,2.062,2.07,11.129,11.129,0,0,0,4.76.965q.262,0,.524-.012A12.32,12.32,0,0,1,6.9,11.5c-2.773,0-5.226-.894-5.933-2.12ZM13.694,12.5c-.707,1.226-3.16,2.124-5.937,2.124-2.411,0-4.577-.678-5.571-1.659a11.206,11.206,0,0,0,4.71.94,11.192,11.192,0,0,0,4.76-.965A4.815,4.815,0,0,0,13.2,11.815a1.918,1.918,0,0,1,.495.686ZM8.922,8.851c-2.424,0-4.6-.682-5.583-1.671a12.335,12.335,0,0,0,3.563.5,11.192,11.192,0,0,0,4.76-.965,4.415,4.415,0,0,0,1.713-1.347,2.949,2.949,0,0,1,1.484,1.359c-.707,1.226-3.16,2.12-5.937,2.12Zm0,0" transform="translate(0 0)"/>
</svg>
