<svg xmlns="http://www.w3.org/2000/svg" viewBox="0 0 12.515 16.595">
  <defs>
    <style>
      .cls-1 {
        fill: #636466;
      }
    </style>
  </defs>
  <g id="Group_1428" data-name="Group 1428" transform="translate(0.013 0.001)">
    <path id="Path_1550" data-name="Path 1550" class="cls-1" d="M0,9.3C0,7.485.04,5.674-.012,3.862A1.668,1.668,0,0,1,1.8,2.044c.669,0,1.33-.008,2,.008.248.008.346-.083.383-.331a2.086,2.086,0,0,1,4.111.023c.03.233.128.293.346.3.827.015,1.654-.053,2.48.038a1.554,1.554,0,0,1,1.36,1.428c.008.105.008.2.008.308,0,3.683-.015,7.366.015,11.041a1.68,1.68,0,0,1-1.744,1.736c-3.036-.03-6.065-.015-9.1-.015A1.537,1.537,0,0,1,.01,14.926Q0,12.119,0,9.3Zm10.883.038V5.584c0-.526-.008-1.052,0-1.578,0-.233-.1-.346-.338-.338q-.451.011-.9,0c-.21-.008-.286.09-.278.286q.011.338,0,.676A.539.539,0,0,1,8.8,5.2c-1.706.008-3.42.008-5.126,0a.531.531,0,0,1-.571-.564c-.008-.241-.008-.489,0-.729,0-.165-.075-.241-.241-.233H2.047c-.421,0-.451.03-.451.443V14.543c0,.421.038.466.474.466h8.343c.443,0,.481-.038.481-.489Q10.882,11.927,10.886,9.334ZM6.722,2.1a.454.454,0,0,0-.474-.5.45.45,0,0,0-.481.466.478.478,0,1,0,.955.038Z"/>
    <path id="Path_1551" data-name="Path 1551" class="cls-1" d="M41.027,101.14a.491.491,0,0,1-.316-.158c-.7-.707-1.4-1.421-2.089-2.127a.348.348,0,0,1,.015-.564c.2-.21.406-.413.616-.616a.407.407,0,0,1,.676.008c.308.3.609.616.894.932.158.18.263.165.428,0q1.251-1.251,2.525-2.5c.3-.293.421-.271.706.015.2.2.4.4.594.6a.35.35,0,0,1,0,.549c-1.248,1.248-2.5,2.488-3.75,3.735A.433.433,0,0,1,41.027,101.14Z" transform="translate(-35.606 -88.702)"/>
  </g>
</svg>
