<svg xmlns="http://www.w3.org/2000/svg" viewBox="0 0 13 14.818">
  <defs>
    <style>
      .cls-1 {
        fill: #636466;
      }
    </style>
  </defs>
  <path id="Path_2119" data-name="Path 2119" class="cls-1" d="M12.819,13.671a.6.6,0,0,1-.282-.593c0-.4.007-.8.028-1.192a.354.354,0,0,1,.141-.254.591.591,0,0,0,.275-.6V.871c0-.656-.106-.762-.748-.762C8.988.109,5.742.137,2.5.095A2.412,2.412,0,0,0,0,2.586c.028,3.281.007,6.562.007,9.843a2.321,2.321,0,0,0,2.463,2.484h9.878c.247,0,.473-.014.593-.275S13.01,13.784,12.819,13.671ZM11.394,13.5c-.1.007-.191.021-.282.021H2.433c-.6,0-.981-.3-1.03-.79a.923.923,0,0,1,.981-1.065c1.291-.007,2.59,0,3.881,0h5.13Zm.176-3.2H2.828c-.466,0-.931.042-1.439.064V2.642c0-.84.31-1.15,1.143-1.15H11.2c.113,0,.226.007.36.014C11.57,4.441,11.57,7.349,11.57,10.305Z" transform="translate(0.002 -0.095)"/>
</svg>
