<svg id="Group_1479" data-name="Group 1479" xmlns="http://www.w3.org/2000/svg" viewBox="0 0 16.124 12.527">
  <defs>
    <style>
      .cls-1 {
        fill: #636466;
      }
    </style>
  </defs>
  <g id="Group_1277" data-name="Group 1277" transform="translate(0 0.347)">
    <path id="Path_1221" data-name="Path 1221" class="cls-1" d="M1.805,4.305a1.355,1.355,0,0,1,.986-.417h2.75l.042-1.347L2.791,2.5a2.632,2.632,0,0,0-1.972.819A2.706,2.706,0,0,0,0,5.291v6.277a2.632,2.632,0,0,0,.819,1.972,2.684,2.684,0,0,0,1.972.819h2.75l.042-.042V13.013l-2.791-.042a1.355,1.355,0,0,1-.986-.417,1.355,1.355,0,0,1-.417-.986V5.291A1.355,1.355,0,0,1,1.805,4.305Z" transform="translate(0 -2.5)"/>
  </g>
  <g id="Group_1278" data-name="Group 1278" transform="translate(3.847)">
    <path id="Path_1222" data-name="Path 1222" class="cls-1" d="M34.311,2.25l4.028,4.028L34.311,10.3V7.25H29.089V5.319h5.222V2.25M33.7,0a.743.743,0,0,0-.556.222.743.743,0,0,0-.222.556V3.916H28.478a.759.759,0,0,0-.778.778V7.833a.759.759,0,0,0,.778.778h4.444v3.139a.786.786,0,0,0,1.333.556l5.5-5.5a.806.806,0,0,0,0-1.111L34.269.222A.775.775,0,0,0,33.7,0Z" transform="translate(-27.7 0)"/>
  </g>
</svg>
