<svg id="Group_1441" data-name="Group 1441" xmlns="http://www.w3.org/2000/svg" xmlns:xlink="http://www.w3.org/1999/xlink" viewBox="0 0 124.597 40.9">
  <defs>
    <style>
      .cls-1 {
        fill: #636466;
      }

      .cls-2 {
        fill: url(#linear-gradient);
      }
    </style>
    <linearGradient id="linear-gradient" y1="0.5" x2="1" y2="0.5" gradientUnits="objectBoundingBox">
      <stop offset="0" stop-color="#00aabc"/>
      <stop offset="1" stop-color="#004866"/>
    </linearGradient>
  </defs>
  <g id="Group_1440" data-name="Group 1440" transform="translate(0 8.094)">
    <path id="Path_1568" data-name="Path 1568" class="cls-1" d="M8.825,324.4c.346,0,.772.011,1.28.034s1.049.069,1.626.137,1.155.163,1.732.277a8.976,8.976,0,0,1,1.558.449.826.826,0,0,1,.449.346.639.639,0,0,1,0,.414l-.209.969a1.03,1.03,0,0,1-.191.312c-.08.091-.237.114-.466.069-.76-.114-1.655-.226-2.684-.329s-2.061-.154-3.1-.154a5.817,5.817,0,0,0-3.184.76,4.964,4.964,0,0,0-1.8,2.061,9.082,9.082,0,0,0-.8,3.012q-.171,1.715-.174,3.618a26.223,26.223,0,0,0,.209,3.358,8.535,8.535,0,0,0,.849,2.872,5,5,0,0,0,1.818,1.989,5.679,5.679,0,0,0,3.081.743,28.887,28.887,0,0,0,3.047-.154c.969-.1,1.869-.214,2.7-.329.254-.046.42-.017.5.086a1.47,1.47,0,0,1,.191.329l.174.9a.872.872,0,0,1,.017.449c-.034.114-.169.22-.4.312a6.979,6.979,0,0,1-1.489.449c-.577.114-1.16.209-1.749.277s-1.149.12-1.678.154-.969.051-1.315.051a9.126,9.126,0,0,1-4.45-.952,7.216,7.216,0,0,1-2.7-2.544A10.042,10.042,0,0,1,.352,340.7,25.882,25.882,0,0,1,0,336.375a29.418,29.418,0,0,1,.332-4.447,11.059,11.059,0,0,1,1.28-3.824A7.264,7.264,0,0,1,4.29,325.42,8.868,8.868,0,0,1,8.825,324.4Z" transform="translate(0 -323.223)"/>
    <path id="Path_1569" data-name="Path 1569" class="cls-1" d="M663.853,306.772a.544.544,0,0,1-.346.589,5.085,5.085,0,0,1-.917.277,4.744,4.744,0,0,1-.952.1,4.073,4.073,0,0,1-1.42-.209,2.062,2.062,0,0,1-.866-.572,2.037,2.037,0,0,1-.432-.9,5.3,5.3,0,0,1-.12-1.16V283.789a.52.52,0,0,1,.589-.589h1.383a.846.846,0,0,1,.466.1c.1.069.154.231.154.486v20.248c0,.6.126.963.38,1.089a3.34,3.34,0,0,0,1.349.192c.369,0,.566.114.589.346Z" transform="translate(-639.972 -283.2)"/>
    <path id="Path_1570" data-name="Path 1570" class="cls-1" d="M940.892,562.856h-1.42c-.414,0-.623-.2-.623-.589v-1.212l-.069-.069c-.277.186-.64.4-1.089.657a15.028,15.028,0,0,1-1.472.726,12.43,12.43,0,0,1-1.695.589,7.093,7.093,0,0,1-1.835.243,6.28,6.28,0,0,1-2.7-.486,3.637,3.637,0,0,1-1.54-1.332,4.95,4.95,0,0,1-.692-2.023,19.717,19.717,0,0,1-.157-2.561V546.589a.524.524,0,0,1,.6-.589h1.509c.374,0,.56.2.56.589v10.246a11.475,11.475,0,0,0,.137,1.972,2.9,2.9,0,0,0,.466,1.212,1.666,1.666,0,0,0,.88.623,4.56,4.56,0,0,0,1.343.174,5.206,5.206,0,0,0,1.449-.243q.827-.24,1.655-.554c.552-.209,1.069-.426,1.552-.657s.863-.414,1.137-.554V546.589a.52.52,0,0,1,.589-.589h1.42a.521.521,0,0,1,.589.589v15.679A.523.523,0,0,1,940.892,562.856Z" transform="translate(-901.09 -538.489)"/>
    <path id="Path_1571" data-name="Path 1571" class="cls-1" d="M1556.127,299.019a19.388,19.388,0,0,1-.329,3.79,7,7,0,0,1-1.143,2.769,5.132,5.132,0,0,1-2.181,1.712,8.767,8.767,0,0,1-3.444.589c-.531,0-1.089-.017-1.678-.051s-1.172-.086-1.749-.154-1.12-.154-1.626-.26a10.218,10.218,0,0,1-1.349-.363,1.009,1.009,0,0,1-.709-.606,2.692,2.692,0,0,1-.12-.777V283.823a.746.746,0,0,1,.12-.5.659.659,0,0,1,.46-.12h1.435a.655.655,0,0,1,.495.137.75.75,0,0,1,.12.486v7.511l.034.069a16.768,16.768,0,0,1,2.778-.815,12.094,12.094,0,0,1,2.152-.226,8.013,8.013,0,0,1,3.332.606,4.774,4.774,0,0,1,2.066,1.749,7.412,7.412,0,0,1,1.04,2.735A19.9,19.9,0,0,1,1556.127,299.019Zm-2.769.329a20.863,20.863,0,0,0-.191-3.072,5.871,5.871,0,0,0-.643-2.046,2.7,2.7,0,0,0-1.18-1.129,4.19,4.19,0,0,0-1.806-.346,16.915,16.915,0,0,0-2.432.191,19.827,19.827,0,0,0-2.641.572v11.557c.672.114,1.395.2,2.172.26s1.535.086,2.275.086a8.159,8.159,0,0,0,1.841-.192,2.618,2.618,0,0,0,1.406-.832,4.39,4.39,0,0,0,.886-1.841A13.143,13.143,0,0,0,1553.357,299.347Z" transform="translate(-1497.736 -283.2)"/>
    <path id="Path_1572" data-name="Path 1572" class="cls-1" d="M2166.018,541.839a2.757,2.757,0,0,1-.26,1.4,1.286,1.286,0,0,1-1.263.572h-9.76a12.963,12.963,0,0,0,.277,2.6,3.8,3.8,0,0,0,.8,1.686,2.966,2.966,0,0,0,1.4.895,7.171,7.171,0,0,0,2.061.257c.346,0,.737-.017,1.177-.051l1.315-.1c.437-.034.86-.074,1.263-.12s.754-.091,1.054-.137a1.279,1.279,0,0,1,.538.034c.125.046.214.186.26.417l.137.772a.572.572,0,0,1-.38.7,7.788,7.788,0,0,1-1.177.386c-.463.117-.946.217-1.455.3s-1.015.146-1.523.194-.969.072-1.383.072a8.154,8.154,0,0,1-3.79-.743,5.339,5.339,0,0,1-2.129-1.955,7.329,7.329,0,0,1-.952-2.786,22.576,22.576,0,0,1-.226-3.235,20.744,20.744,0,0,1,.209-2.786,8.2,8.2,0,0,1,.935-2.872,6.2,6.2,0,0,1,2.112-2.232,6.86,6.86,0,0,1,3.773-.9,8.2,8.2,0,0,1,3.564.657,5.294,5.294,0,0,1,2.095,1.732,6.245,6.245,0,0,1,1,2.458A20.155,20.155,0,0,1,2166.018,541.839Zm-2.8-.206a10.927,10.927,0,0,0-.154-1.818,4.5,4.5,0,0,0-.606-1.643,3.321,3.321,0,0,0-1.28-1.177,4.659,4.659,0,0,0-2.215-.449,4.525,4.525,0,0,0-1.92.363,3.244,3.244,0,0,0-1.263,1.02,4.564,4.564,0,0,0-.726,1.592,10.873,10.873,0,0,0-.312,2.112Z" transform="translate(-2090.497 -527.027)"/>
  </g>
  <path id="Path_1573" data-name="Path 1573" class="cls-2" d="M2956.7,6.245c.26,0,.334.26.334.48V31c0,1.2,0,2.149-1.566,2.715-.083.026-.489.166-.863.263-.663.171-1.486.346-2.052.44a20.5,20.5,0,0,1-3.453.26c-7.21,0-8.882-3.269-8.882-10.26,0-7.136,1.969-10.223,8.659-10.223a14.9,14.9,0,0,1,3.07.283.421.421,0,0,1,.346.409v1.495a.343.343,0,0,1-.4.346,22.023,22.023,0,0,0-2.718-.191c-4.087,0-5.91,1.3-5.91,7.919,0,7.065,2.158,7.879,5.947,7.879a17.226,17.226,0,0,0,4.887-.706V7.211c0-.3.186-.409.483-.449l2.009-.517h.112m9.605-3.312h-34.509a.262.262,0,0,0-.263.263V37.7a.262.262,0,0,0,.263.263H2966.3a.262.262,0,0,0,.263-.263V3.2a.264.264,0,0,0-.263-.263m0-2.932a3.2,3.2,0,0,1,3.2,3.2V37.7a3.2,3.2,0,0,1-3.2,3.2h-34.509a3.2,3.2,0,0,1-3.2-3.2V3.2a3.2,3.2,0,0,1,3.2-3.2Z" transform="translate(-2844.903)"/>
</svg>
